Coordinates
version=1
nRows=14
nColumns=24
inDegrees=yes

Units are S.I. units (second, meters, Newtons, ...)
Angles are in degrees.

endheader
time	pelvis_tilt	pelvis_list	pelvis_rotation	pelvis_tx	pelvis_ty	pelvis_tz	hip_flexion_r	hip_adduction_r	hip_rotation_r	knee_angle_r	ankle_angle_r	subtalar_angle_r	mtp_angle_r	hip_flexion_l	hip_adduction_l	hip_rotation_l	knee_angle_l	ankle_angle_l	subtalar_angle_l	mtp_angle_l	lumbar_extension	lumbar_bending	lumbar_rotation
      1.22483333	     -0.52067889	      0.98741724	      2.57315408	      0.16244497	      1.00979698	      0.30029782	     21.22266573	     -6.47539811	    -10.73413160	    -73.55468409	     -0.78381169	     -8.01150898	     -2.55239390	     13.44094494	      2.98153380	     -7.63103732	    -13.86201599	     -0.10015054	    -10.55785604	      1.04370746	    -12.08694072	     -2.48296027	      0.38047179
      1.22900000	     -0.48955164	      0.79380871	      2.65533576	      0.16721179	      1.01094912	      0.29998753	     21.77514740	     -6.21966018	    -10.79558963	    -73.24021383	     -0.54404160	     -7.89075688	     -2.58515112	     12.99459006	      2.81378105	     -7.48816505	    -13.62421106	      0.00172311	    -10.51812725	      1.03619960	    -12.18575120	     -2.22633588	      0.32169892
      1.23316667	     -0.39237260	      0.56481823	      2.80256292	      0.17198593	      1.01222218	      0.29950376	     22.20272938	     -5.96484587	    -10.95836546	    -72.81133915	     -0.36044951	     -7.76220022	     -2.66544568	     12.48364346	      2.62125996	     -7.27733042	    -13.39327405	      0.15717509	    -10.39955987	      1.01528374	    -12.35560016	     -1.90672908	      0.20417737
      1.23733333	     -0.39907296	      0.39223241	      2.83730306	      0.17674015	      1.01325228	      0.29927879	     22.77949013	     -5.71850083	    -10.98612385	    -72.38237443	     -0.13123239	     -7.69516236	     -2.68683365	     12.06999905	      2.46526854	     -7.17708578	    -13.13426068	      0.20322409	    -10.43287634	      1.00587026	    -12.41346424	     -1.68132401	      0.17215380
      1.24150000	     -0.38938849	      0.20034690	      2.89635443	      0.18149509	      1.01428920	      0.29899556	     23.30504862	     -5.46642221	    -11.05623253	    -71.86772260	      0.06770544	     -7.60746622	     -2.70965751	     11.64495943	      2.29118247	     -7.05990287	    -12.88366763	      0.27873278	    -10.42038150	      0.99516628	    -12.48405127	     -1.42344813	      0.14273087
      1.24566667	     -0.27959688	     -0.02959977	      3.03156064	      0.18627440	      1.01550788	      0.29851688	     23.66093243	     -5.21842472	    -11.24553574	    -71.23401744	      0.18801605	     -7.55169684	     -2.76452460	     11.11394710	      2.08788195	     -6.87382117	    -12.63099530	      0.41891843	    -10.31834174	      0.96876214	    -12.66287791	     -1.09461610	      0.06499577
      1.24983333	     -0.20115595	     -0.21182331	      3.10570237	      0.19104785	      1.01661388	      0.29818024	     24.05799740	     -4.99201254	    -11.36082284	    -70.57737693	      0.37675010	     -7.53968200	     -2.82281723	     10.60112938	      1.92311738	     -6.74513121	    -12.34700626	      0.48170760	    -10.31293187	      0.93108285	    -12.81201080	     -0.83744975	     -0.01970477
      1.25400000	     -0.24103801	     -0.34584465	      3.12260216	      0.19583781	      1.01744235	      0.29796479	     24.59552622	     -4.79791526	    -11.39977658	    -69.91098390	      0.56790898	     -7.50934720	     -2.83320612	     10.21079267	      1.80286438	     -6.67765165	    -12.06381269	      0.52303378	    -10.34434717	      0.92074888	    -12.82012299	     -0.65851174	     -0.03957295
      1.25816667	     -0.17142532	     -0.54632599	      3.23416701	      0.20064614	      1.01847499	      0.29754278	     24.94355061	     -4.57821467	    -11.57954884	    -69.11104367	      0.67386367	     -7.54445739	     -2.86903329	      9.71674634	      1.62048025	     -6.53632691	    -11.79658663	      0.63482356	    -10.27398472	      0.88976981	    -12.94550947	     -0.37183420	     -0.10511417
      1.26233333	     -0.20914415	     -0.65031156	      3.24930713	      0.20544205	      1.01920789	      0.29732607	     25.43962243	     -4.42160027	    -11.62302169	    -68.34107406	      0.87288765	     -7.55298009	     -2.87700840	      9.31780443	      1.53026116	     -6.47921119	    -11.50137713	      0.66891975	    -10.30410441	      0.87887903	    -12.95959696	     -0.22140414	     -0.14183888
      1.26650000	     -0.12482577	     -0.81109411	      3.34744853	      0.21027166	      1.02017284	      0.29690754	     25.73393934	     -4.24649539	    -11.79578431	    -67.43694447	      0.94166620	     -7.63715910	     -2.90339932	      8.79205434	      1.38681832	     -6.35562303	    -11.20442908	      0.76249539	    -10.25871760	      0.84931784	    -13.10712257	      0.03989695	     -0.23547675
      1.27066667	     -0.16460242	     -0.88083900	      3.37123363	      0.21511628	      1.02080281	      0.29669680	     26.18516438	     -4.13370221	    -11.85482060	    -66.56721950	      1.16010493	     -7.68081535	     -2.91043428	      8.38954937	      1.33041867	     -6.31643777	    -10.90288631	      0.79365344	    -10.28040747	      0.83819499	    -13.10527393	      0.13862846	     -0.28277663
      1.27483333	     -0.08214445	     -1.00353210	      3.47301647	      0.21996867	      1.02165985	      0.29627308	     26.43883537	     -4.00530429	    -12.03135633	    -65.56702041	      1.22482393	     -7.81205186	     -2.93727917	      7.86020742	      1.22601657	     -6.20045473	    -10.59878583	      0.88195711	    -10.24365600	      0.80662180	    -13.24919045	      0.35263309	     -0.41283683
      1.27900000	     -0.15271436	     -1.02600307	      3.49182701	      0.22485682	      1.02212082	      0.29605160	     26.88512365	     -3.95062914	    -12.08422300	    -64.61490000	      1.42888995	     -7.87142687	     -2.94405287	      7.48148784	      1.22240759	     -6.17084118	    -10.28943019	      0.91698166	    -10.25913248	      0.79770145	    -13.21569867	      0.41713591	     -0.45886798
